<?xml version="1.0" encoding="UTF-8"?>
<svg xmlns:cc="http://creativecommons.org/ns#" xmlns:rdf="http://www.w3.org/1999/02/22-rdf-syntax-ns#" width="16" height="16" version="1.1"
     viewBox="0 0 4.2333 4.2333" xmlns="http://www.w3.org/2000/svg"
>
    <g stroke-width=".26458">
        <rect x="-1.1102e-16" width="4.2333" height="4.2333"/>
        <g fill="#0f0">
            <rect x="1.5875" y="1.0583" width=".26458" height=".52917"/>
            <rect x="1.3229" y=".79375" width=".26458" height=".26458"/>
            <rect x=".52917" y=".52917" width=".79375" height=".26458"/>
            <rect x=".26458" y=".79375" width=".26458" height=".26458"/>
            <rect x="-1.7347e-18" y="1.0583" width=".26458" height=".52917"/>
            <rect x=".26458" y="1.5875" width=".26458" height=".26458"/>
            <rect x=".52917" y="1.8521" width=".52917" height=".26458"/>
            <rect x="1.0583" y="2.1167" width=".26458" height=".26458"/>
            <rect x="1.3229" y="2.3812" width=".26458" height=".26458"/>
            <rect x="1.5875" y="2.6458" width=".26458" height=".79375"/>
            <rect x="1.3229" y="3.4396" width=".26458" height=".26458"/>
            <rect x=".52917" y="3.7042" width=".79375" height=".26458"/>
            <rect x=".26458" y="3.4396" width=".26458" height=".26458"/>
            <rect y="2.9104" width=".26458" height=".52917"/>
            <rect x="2.9104" y="1.5875" width=".79375" height=".26458"/>
            <rect x="3.7042" y="1.8521" width=".26458" height=".26458"/>
            <rect x="3.9688" y="2.1167" width=".26458" height="1.3229"/>
            <rect x="3.7042" y="3.4396" width=".26458" height=".26458"/>
            <rect x="2.9104" y="3.7042" width=".79375" height=".26458"/>
            <rect x="2.6458" y="3.4396" width=".26458" height=".26458"/>
            <rect x="2.3812" y="2.1167" width=".26458" height="1.3229"/>
            <rect x="2.6458" y="1.8521" width=".26458" height=".26458"/>
        </g>
    </g>
    <metadata>
        <rdf:RDF>
            <cc:Work rdf:about="">
                <cc:license rdf:resource="http://creativecommons.org/licenses/by-sa/4.0/"/>
            </cc:Work>
            <cc:License rdf:about="http://creativecommons.org/licenses/by-sa/4.0/">
                <cc:permits rdf:resource="http://creativecommons.org/ns#Reproduction"/>
                <cc:permits rdf:resource="http://creativecommons.org/ns#Distribution"/>
                <cc:requires rdf:resource="http://creativecommons.org/ns#Notice"/>
                <cc:requires rdf:resource="http://creativecommons.org/ns#Attribution"/>
                <cc:permits rdf:resource="http://creativecommons.org/ns#DerivativeWorks"/>
                <cc:requires rdf:resource="http://creativecommons.org/ns#ShareAlike"/>
            </cc:License>
        </rdf:RDF>
    </metadata>
</svg>
